<!DOCTYPE svg PUBLIC "-//W3C//DTD SVG 20010904//EN" "http://www.w3.org/TR/2001/REC-SVG-20010904/DTD/svg10.dtd">
<svg version="1.0" xmlns="http://www.w3.org/2000/svg" width="21px" height="20px" viewBox="0 0 210 200" preserveAspectRatio="xMidYMid meet">
<g id="layer101" fill="#1ca8c3" stroke="none">
 <path d="M25 174 c-36 -39 -35 -108 2 -146 23 -24 35 -28 81 -28 73 0 102 28 102 101 0 72 -29 99 -105 99 -48 0 -60 -4 -80 -26z m118 -5 c35 -16 61 -79 38 -93 -4 -3 -22 17 -39 44 -17 28 -35 50 -39 50 -10 0 -53 -66 -53 -80 0 -18 29 -10 41 11 10 20 12 19 40 -22 26 -40 27 -45 11 -51 -31 -12 -59 -8 -86 13 -37 29 -37 89 0 118 30 24 52 26 87 10z"/>
 </g>

</svg>