<!DOCTYPE svg PUBLIC "-//W3C//DTD SVG 20010904//EN" "http://www.w3.org/TR/2001/REC-SVG-20010904/DTD/svg10.dtd">
<svg version="1.0" xmlns="http://www.w3.org/2000/svg" width="95px" height="38px" viewBox="0 0 1200 480" preserveAspectRatio="xMidYMid meet">
 <g id="layer101" fill="#010101" stroke="none">
  <path d="M66.5 434.6 c-12.6 -3 -23.9 -12.5 -30.2 -25.2 l-3.8 -7.8 0 -164.5 0 -164.6 3.4 -7 c4.2 -8.6 13.4 -18.1 21.1 -21.8 12.9 -6.2 -33.1 -5.7 542.5 -5.5 l525 0.3 6.4 2.4 c13.8 5.1 24.8 17 29.3 31.4 l2.3 7.2 0 157.5 c0 150.7 -0.1 157.8 -1.9 164.3 -4.4 16.2 -18.6 29.9 -34.7 33.6 -6.9 1.6 -1052.8 1.3 -1059.4 -0.3z"/>
</g>
 <g id="layer102" fill="#f9f9f9" stroke="none">
  <path d="M66.5 434.6 c-12.6 -3 -23.9 -12.5 -30.2 -25.2 l-3.8 -7.8 0 -164.5 0 -164.6 3.4 -7 c4.2 -8.6 13.4 -18.1 21.1 -21.8 12.9 -6.2 -33.1 -5.7 542.5 -5.5 l525 0.3 6.4 2.4 c13.8 5.1 24.8 17 29.3 31.4 l2.3 7.2 0 157.5 c0 150.7 -0.1 157.8 -1.9 164.3 -4.4 16.2 -18.6 29.9 -34.7 33.6 -6.9 1.6 -1052.8 1.3 -1059.4 -0.3z m1064.2 -11 c7.6 -3.5 15.3 -11.3 19.1 -19.3 l2.7 -5.8 0.3 -159 c0.2 -156.4 0.2 -159.1 -1.8 -165.5 -3.5 -11.6 -13.2 -21.2 -24.4 -24.5 -4.5 -1.3 -66.7 -1.5 -531.6 -1.3 l-526.5 0.3 -5.6 2.6 c-9.8 4.6 -17 12.7 -20.6 23 -1.1 3.3 -1.3 31.7 -1.3 163.4 0 158.9 0 159.4 2.1 164.7 4.7 12.1 14.6 20.9 26.6 23.7 2.2 0.5 225.1 0.8 529.3 0.8 l525.5 -0.2 6.2 -2.9z"/>
  <path d="M442.8 324.5 c-0.1 -33.8 -0.2 -64.3 -0.3 -67.7 l0 -6.3 7.8 -0.3 c5 -0.2 8.4 0.1 9.3 0.9 0.9 0.8 1.4 3.3 1.4 7.5 0 3.5 0.3 6.4 0.6 6.4 0.3 0 2.5 -2.2 4.9 -4.8 6.6 -7.3 13.9 -10.5 24.9 -11 7.5 -0.3 10.1 0 14.8 1.7 11 4.2 18.8 12.6 23.8 25.6 3.1 8.1 3.9 26.9 1.6 36.8 -5.5 23.5 -22.4 37.1 -44.1 35.4 -8.9 -0.7 -13.1 -2.4 -18.9 -7.8 l-4.6 -4.2 0 24.7 0 24.6 -10.5 0 -10.5 0 -0.2 -61.5z m54.2 5.2 c9.3 -4.6 14.4 -15.6 14.4 -31.2 0 -11.6 -2.1 -18.8 -7.4 -24.8 -10.5 -11.9 -28.5 -9.8 -36.4 4.3 -3 5.3 -3.1 6 -3.4 19.4 -0.5 16.2 0.5 20.7 5.6 26.7 6.8 7.9 17.9 10.2 27.2 5.6z"/>
  <path d="M546.8 322 c-0.1 -35.2 -0.2 -65.7 -0.2 -67.7 l-0.1 -3.8 9 0 9 0 0.3 3 c0.1 1.7 0.5 4.9 0.8 7.1 l0.5 4.2 5.2 -5.2 c7.4 -7.4 13.2 -9.9 23.8 -10.4 14.4 -0.7 24.2 3.8 32.4 14.9 6.5 8.9 8.7 16 9.2 30.9 0.4 9.6 0.1 14.1 -1.1 19 -6.6 26 -27.8 39.8 -51.3 33.5 -5.3 -1.4 -7.6 -2.8 -11.5 -6.5 l-4.8 -4.6 0 24.8 0 24.8 -10.5 0 -10.5 0 -0.2 -64z m53.7 8.1 c5.3 -2.4 9.8 -7.6 12.6 -14.8 3.1 -7.8 3.3 -24.1 0.5 -32.2 -6.2 -18 -26.6 -22.9 -38.8 -9.3 -5.6 6.2 -7.1 12.5 -6.6 28.5 0.4 14.4 1.6 18.4 7.5 23.9 6.1 5.8 16.9 7.5 24.8 3.9z"/>
  <path d="M125.3 369.5 c-14.5 -4.6 -29.7 -22.1 -44.3 -51 -10 -19.7 -14.9 -34.8 -17.5 -54.5 -4.1 -30.2 0.8 -56.6 14.3 -76.3 5.1 -7.4 16.5 -17.2 24.4 -21.1 18.5 -9.1 32.2 -8.7 61.5 1.8 10.9 3.9 16 3.6 33.4 -2.4 18.8 -6.4 26.4 -7.6 38.3 -6.1 15.6 2 30.3 9.9 39.8 21.2 l3.9 4.6 -8.8 8.9 c-14 14.2 -20.3 28.3 -20.3 45.6 0 9.9 2.2 20.4 6.2 28.7 3.9 8.3 14.8 19.3 23.6 23.9 3.4 1.8 6.2 3.5 6.2 3.7 0 0.2 -2 5.2 -4.5 11.1 -16 38.1 -35.1 60.5 -53.8 63 -6.1 0.9 -11.7 -0.6 -26 -6.7 l-11.8 -5.1 -11.7 0.4 c-11.2 0.4 -12.1 0.6 -22.7 5 -17.9 7.5 -21.3 8.1 -30.2 5.3z"/>
  <path d="M697.5 348 c-7.1 -0.8 -9.1 -1.4 -16.7 -4.7 -3.2 -1.4 -5.8 -3.1 -5.7 -3.7 0.2 -3.1 4.7 -16.1 5.5 -15.9 0.5 0.1 3.7 1.4 7.1 2.8 9 3.7 20.6 5.2 28.9 3.8 12 -2.1 18.4 -8.8 18.4 -19.4 0 -9.2 -6.1 -16.5 -18 -21.5 -21.5 -9 -31.9 -16.7 -36.8 -27.1 -3.6 -7.6 -3.7 -20.1 -0.4 -27.6 3.3 -7.3 11.1 -14.9 19 -18.5 11.1 -5.2 30.4 -6 44.3 -1.8 8.8 2.6 8.6 2.3 5.8 11.8 -1.8 6 -2.9 8.2 -4 7.9 -0.8 -0.2 -3.9 -1.3 -6.9 -2.3 -8.2 -2.8 -19.4 -3.4 -26.2 -1.4 -10.9 3.1 -16.2 13.3 -12 22.8 2.8 6.5 5.7 8.4 29.4 19.8 12.1 5.8 19.7 12.4 23.8 20.5 2.2 4.4 2.5 6.3 2.5 16 0 10 -0.3 11.5 -2.8 16.6 -8.4 17.1 -28.4 25.1 -55.2 21.9z"/>
  <path d="M793.8 348 c-6.9 -1.7 -11.5 -5.7 -15.1 -12.9 l-3.2 -6.6 -0.3 -30.7 -0.4 -30.7 -6.6 -0.3 -6.7 -0.3 0 -8 0 -8 6.7 -0.3 6.7 -0.3 0.3 -8.5 0.3 -8.6 9 -2.9 c5 -1.6 9.6 -2.9 10.3 -2.9 0.9 0 1.2 3 1.2 11.5 l0 11.4 11.3 0.3 11.2 0.3 0 8 0 8 -11.2 0.3 -11.3 0.3 0 27 c0 24.8 0.2 27.3 1.9 30.8 2.5 4.8 6.1 6.3 13.7 6 l5.9 -0.3 0.3 8.1 0.3 8 -2.9 0.6 c-6 1.2 -17.8 1.6 -21.4 0.7z"/>
  <path d="M858.5 347.6 c-14.6 -3.6 -25.7 -14.6 -31.1 -30.6 -2.9 -8.5 -2.7 -27.3 0.4 -36.2 4.7 -13.5 12.8 -22.9 24.8 -28.5 5.5 -2.6 6.7 -2.8 19.4 -2.8 11.9 0 14.1 0.3 18.3 2.2 12.1 5.6 20.3 14.9 24.9 28 3.3 9.7 3.3 26.8 0 36.8 -5.6 16.9 -18.2 28.5 -34.2 31.5 -6.9 1.3 -16.2 1.1 -22.5 -0.4z m20.3 -16.2 c7.7 -3.2 13.1 -10.7 15.8 -21.9 5.7 -24.2 -8 -47.9 -25.9 -45.1 -11.8 1.9 -19.1 11.1 -21.7 27.1 -1.9 12.1 2 27.6 8.8 34.9 5.7 6.1 15.4 8.2 23 5z"/>
  <path d="M1027 348 c-8.9 -1.2 -13.5 -2.8 -19.9 -7.1 -8 -5.4 -13.4 -13 -16.8 -23.6 -2.3 -7.6 -2.5 -9.4 -2 -20.1 0.3 -8.4 1.1 -13.4 2.6 -17.6 4.3 -12 12.4 -21.6 22.6 -26.9 5.8 -3.1 6.4 -3.2 19 -3.2 12.5 0 13.2 0.1 18.3 2.9 9.8 5.5 16.7 15.3 19.7 27.8 1.5 6.4 2 19.3 0.9 22.2 -0.5 1.4 -4.3 1.6 -32.1 1.6 l-31.6 0 0.7 4.3 c1.7 10.5 7.5 18.1 16.8 21.8 6 2.5 21 2.5 30.6 0 3.9 -1.1 7.4 -1.6 7.7 -1.2 0.2 0.4 0.9 3 1.5 5.7 0.6 2.7 1.3 5.6 1.6 6.5 1.2 4.2 -25 8.8 -39.6 6.9z m24.6 -64.7 c-0.9 -6.9 -4.5 -13.3 -9.4 -16.7 -3.5 -2.5 -5.2 -3 -10.4 -3 -11.7 -0.1 -19.8 7.5 -23.2 21.7 l-0.6 2.7 22.1 0 22.2 0 -0.7 -4.7z"/>
  <path d="M319.4 345.3 c0.3 -1 2.6 -8.3 5.2 -16.3 2.5 -8 9 -28.4 14.4 -45.5 5.4 -17 12.6 -39.9 16.1 -50.7 l6.3 -19.8 12.7 0 c7.3 0 13 0.4 13.4 1 0.3 0.5 1.7 4.5 3 8.7 1.3 4.3 5.7 18.4 9.8 31.3 4.1 12.9 11.8 37 17 53.5 5.3 16.5 10.3 32 11.1 34.4 0.9 2.4 1.6 4.5 1.6 4.7 0 0.9 -21.9 0.3 -22.5 -0.6 -0.3 -0.6 -3.2 -9.2 -6.3 -19.3 l-5.8 -18.2 -21.5 -0.3 -21.5 -0.2 -2.8 9.2 c-1.5 5.1 -4.1 13.9 -5.8 19.6 l-3.1 10.2 -10.9 0 c-10 0 -10.9 -0.2 -10.4 -1.7z m71.6 -55 c0 -0.3 -2.5 -8.5 -5.6 -18 -3 -9.6 -6.7 -22.2 -8.3 -27.9 -1.5 -5.8 -3.1 -10.4 -3.6 -10.2 -0.5 0.2 -2.4 6.1 -4.2 13.2 -1.8 7 -5.3 19.2 -7.8 27 -2.5 7.9 -4.5 14.8 -4.5 15.4 0 0.9 4.7 1.2 17 1.2 9.4 0 17 -0.3 17 -0.7z"/>
  <path d="M931 298.5 l0 -48.6 8.8 0.3 8.7 0.3 0.3 8.8 c0.1 4.8 0.6 8.7 1.1 8.7 0.4 0 1.6 -1.8 2.6 -4.1 2.4 -5.1 10.5 -12.5 15.3 -13.9 2 -0.5 5.8 -1 8.5 -1 l4.7 0 0 9.9 0 9.9 -7 0.4 c-9.2 0.5 -14.3 3.8 -18.5 12.3 l-3 6 -0.3 29.8 -0.3 29.7 -10.5 0 -10.4 0 0 -48.5z"/>
  <path d="M445.2 182 c-9.8 -6 -9.5 -19.4 0.5 -26.4 3.2 -2.2 6.1 -3.1 12.2 -3.9 7.9 -1.1 8.1 -1.2 8.1 -3.9 0 -3.3 -2.9 -6.5 -6.7 -7.4 -2.4 -0.6 -8.1 0.2 -13.9 2.1 -1.8 0.5 -2.3 0.1 -3.2 -2.4 -1 -2.8 -0.8 -3.3 1.1 -4.5 1.2 -0.8 4.8 -1.9 8.1 -2.5 12.5 -2.3 21.6 1.8 24.4 10.9 0.6 1.9 1.2 11.4 1.4 21 l0.2 17.5 -4.7 0.3 c-4.5 0.3 -4.7 0.2 -4.7 -2.2 0 -2.7 -1.4 -3.4 -2.6 -1.5 -1.2 2 -8.8 4.9 -12.9 4.9 -2.3 0 -5.4 -0.9 -7.3 -2z m17.4 -8.5 c3.9 -2.5 6 -14 2.8 -15.2 -2.5 -0.9 -11.6 1.5 -14.1 3.9 -2.3 2.2 -3.2 8 -1.5 10.4 2.4 3.5 8.2 3.9 12.8 0.9z"/>
  <path d="M562 182.2 c-9.9 -4.9 -10.8 -18.7 -1.6 -25.7 3.7 -2.8 12.5 -5.5 18.4 -5.5 2.9 0 3.2 -0.3 3.2 -3 0 -3.5 -2.8 -6.7 -6.7 -7.6 -2.4 -0.6 -8.1 0.2 -14 2.1 -1.8 0.6 -2.2 0.2 -2.8 -2.4 -0.8 -3.9 -0.2 -4.8 4.3 -6 15.3 -4 26.4 -0.3 29.2 9.8 0.5 2 1.1 11.6 1.2 21.4 l0.3 17.8 -4.5 -0.3 c-3.8 -0.3 -4.5 -0.7 -4.8 -2.5 -0.4 -2.5 -1.7 -3 -2.8 -1.2 -1.1 1.9 -8.7 4.9 -12.4 4.9 -1.9 0 -5.1 -0.8 -7 -1.8z m15.8 -8.2 c3.9 -2.4 5.4 -5.9 5 -11.4 -0.3 -4.8 -2 -5.4 -8.8 -3.6 -8.6 2.3 -12.1 10.4 -6.4 14.9 3.3 2.6 6 2.6 10.2 0.1z"/>
  <path d="M630.5 182.6 c-1.6 -0.7 -4.1 -2.6 -5.5 -4.1 l-2.5 -2.7 -0.5 3.4 c-0.5 3.2 -0.7 3.3 -5.4 3.6 l-4.9 0.3 0.6 -9.8 c0.4 -5.4 0.7 -21.6 0.7 -36 l0 -26.3 5 0 5 0 0 14 c0 7.7 0.4 14 0.8 14 0.5 0 1.9 -1.1 3.1 -2.4 4.3 -4.5 14.4 -5.5 21.3 -2 8.7 4.4 13.2 20.1 9.3 33 -3.7 12.4 -16.6 19.6 -27 15z m10 -8.8 c8.1 -3.7 10 -21.7 3.1 -29.1 -3.1 -3.4 -6.8 -4.3 -11.6 -2.8 -5.6 1.7 -8.2 5.8 -8.8 14.1 -0.6 8.2 0.9 13.1 4.9 16.5 3.4 2.8 8.1 3.3 12.4 1.3z"/>
  <path d="M713.3 182 c-9.3 -3.7 -14.3 -12 -14.3 -23.7 0 -17.3 12.4 -28.6 27.7 -25.3 9.3 2 14.5 9.3 14.7 20.4 l0.1 7.1 -16.3 0.3 -16.3 0.3 0.6 2.2 c0.4 1.2 0.9 3 1.1 3.9 0.3 0.9 2.1 3.1 4 4.7 3.2 2.8 4.1 3.1 10.4 3.1 3.8 0 8 -0.4 9.4 -1 2.1 -0.8 2.7 -0.6 3.6 1 3 5.5 -0.2 7.7 -12.5 8.5 -5.5 0.4 -8.1 0.1 -12.2 -1.5z m18.1 -29.8 c1.1 -1.7 -1.5 -8.2 -4.1 -10.2 -3.1 -2.4 -8.9 -2.6 -12.1 -0.4 -2.6 1.8 -5.2 6.5 -5.2 9.4 0 1.9 0.6 2 10.4 2 5.8 0 10.7 -0.4 11 -0.8z"/>
  <path d="M797 181.9 c-9 -4.1 -13.1 -10.4 -13.8 -21.5 -0.9 -14.5 6 -24.8 18.3 -27.4 8.9 -1.8 15.6 0 21.6 6 5.5 5.5 6.9 9.4 6.9 19.3 0 11.1 -4.7 19.2 -13.4 23.3 -6.4 3 -13.5 3.1 -19.6 0.3z m15.8 -8.5 c8.2 -5.3 8 -25.6 -0.3 -31 -8.9 -5.8 -18.5 2.3 -18.5 15.6 0 13.9 9.3 21.5 18.8 15.4z"/>
  <path d="M940.9 181.7 c-5.6 -3.8 -6.4 -6.4 -6.7 -23.9 l-0.4 -15.7 -3.1 -0.3 c-3 -0.3 -3.2 -0.5 -3.2 -4.3 0 -3.8 0.2 -4 3.3 -4.3 3.1 -0.3 3.2 -0.5 3.2 -4.6 0 -4.1 0.1 -4.3 4.1 -5.5 2.3 -0.7 4.7 -1.5 5.5 -1.8 1.1 -0.4 1.4 0.8 1.4 5.6 l0 6.1 6.1 0 6 0 -0.3 4.3 -0.3 4.2 -5.7 0.3 -5.8 0.3 0 13.8 c0 12.5 0.2 14.1 2.1 16.5 1.5 1.9 3 2.6 5.5 2.6 3.3 0 3.4 0.1 3.4 3.9 0 3.2 -0.4 4 -2.2 4.5 -4.7 1.2 -9.5 0.6 -12.9 -1.7z"/>
  <path d="M1041.6 182.1 c-9.8 -4 -14.6 -11.8 -14.6 -23.6 0 -7.2 2.9 -15.5 6.8 -19.9 3.3 -3.5 9.4 -5.9 15.7 -6 8 -0.1 13 2.5 16.9 8.8 2.6 4.1 3 5.8 3 11.9 l0.1 7.2 -16.2 0.3 c-10.1 0.1 -16.3 0.6 -16.3 1.3 0 2.2 2.9 7.6 5.4 9.9 2.2 2 4 2.5 9.6 2.8 3.8 0.2 8.4 -0.1 10.1 -0.7 1.8 -0.6 3.3 -1 3.5 -0.9 0.1 0.2 0.5 1.9 0.9 3.9 0.6 3.5 0.5 3.7 -2.7 4.8 -6.2 2.3 -16.8 2.3 -22.2 0.2z m17.9 -30.1 c1.1 -1.7 -1.5 -7.9 -4.2 -10 -3.1 -2.5 -8.5 -2.6 -12 -0.3 -2.6 1.7 -6.6 9 -5.7 10.5 0.8 1.2 21.2 1 21.9 -0.2z"/>
  <path d="M320 181.7 c0 -0.8 2.4 -9 5.4 -18.3 3 -9.3 7.8 -24.2 10.6 -33.1 l5.1 -16.3 6.5 0 c5.7 0 6.6 0.2 7.4 2.3 1.2 2.7 21 65.1 21 66.1 0 0.4 -2.6 0.6 -5.7 0.4 l-5.7 -0.3 -3.1 -10 -3.1 -10 -8.9 -0.3 c-13.1 -0.4 -12.7 -0.6 -15.5 9 -3.3 11.9 -3.2 11.8 -9 11.8 -3.5 0 -5 -0.4 -5 -1.3z m36 -28.6 c0 -0.5 -1.3 -5.2 -2.9 -10.3 -1.7 -5.1 -3.5 -11.2 -4.1 -13.6 -1.1 -4.1 -3 -5 -3 -1.3 0 1 -1.6 7 -3.5 13.2 -1.9 6.3 -3.5 11.7 -3.5 12.2 0 0.4 3.8 0.7 8.5 0.7 4.7 0 8.5 -0.4 8.5 -0.9z"/>
  <path d="M397.6 176.3 c-9.4 -24.5 -15.3 -42.5 -14.1 -42.9 0.7 -0.3 3.2 -0.4 5.6 -0.2 l4.4 0.3 3.2 9.5 c1.8 5.2 4.5 13.8 6.1 19 l2.9 9.5 2.7 -9 c10 -32.7 8.5 -29.7 14.9 -29.3 2.8 0.2 5.1 0.8 5 1.3 -0.2 1.1 -8.2 22.7 -14 38 l-3.8 10 -5.1 0.3 -5.2 0.3 -2.6 -6.8z"/>
  <path d="M496.4 181.7 c-0.2 -0.7 -0.3 -11.8 -0.2 -24.7 l0.3 -23.5 5.3 -0.3 5.2 -0.3 0 25 0 25.1 -5 0 c-3.2 0 -5.2 -0.5 -5.6 -1.3z"/>
  <path d="M527 147.1 l0 -36.1 5.5 0 5.5 0 -0.2 35.8 -0.3 35.7 -5.2 0.3 -5.3 0.3 0 -36z"/>
  <path d="M673.7 182.3 c-0.4 -0.3 -0.7 -16.5 -0.7 -36 l0 -35.3 5.5 0 5.5 0 0 36 0 36 -4.8 0 c-2.7 0 -5.2 -0.3 -5.5 -0.7z"/>
  <path d="M845 158.1 l0 -25.1 4.5 0 c4.5 0 4.5 0 4.5 3.5 0 1.9 0.3 3.5 0.6 3.5 0.3 0 1.9 -1.3 3.5 -2.9 5.5 -5.6 17 -6 22.8 -0.8 5.2 4.8 6.1 8.7 6.1 28.5 l0 18.3 -5.2 -0.3 -5.3 -0.3 -0.5 -17.5 c-0.3 -11 -1 -18.3 -1.7 -19.6 -1.9 -3.4 -6.5 -4.8 -10.8 -3.4 -6.2 2.1 -6.9 4.2 -7.5 23.5 l-0.5 17 -5.2 0.3 -5.3 0.3 0 -25z"/>
  <path d="M972.7 182.3 c-0.4 -0.3 -0.7 -16.5 -0.7 -36 l0 -35.3 5.5 0 5.5 0 0 14 c0 7.7 0.2 14 0.4 14 0.3 0 1.7 -1.1 3.2 -2.5 7.9 -7.4 21.1 -4.7 25.7 5.3 2 4.3 2.2 6.4 2.2 22.7 l0 18 -5.2 0.3 -5.1 0.3 -0.4 -17.3 c-0.3 -19.1 -1.1 -21.8 -6.6 -23.9 -4.1 -1.6 -9.9 0.5 -12.2 4.4 -1.8 2.8 -2 5.1 -2 20 l0 16.7 -4.8 0 c-2.7 0 -5.2 -0.3 -5.5 -0.7z"/>
  <path d="M172.5 162 c-0.8 -1.3 1.1 -15.5 3.1 -22 5.9 -20.1 21.4 -35.4 41.4 -40.9 10.9 -3 10.4 -3.3 9.7 5.4 -0.9 10.6 -2.3 15.8 -6.9 25.4 -3.2 6.7 -5.7 10.1 -12.1 16.6 -4.6 4.6 -10.4 9.3 -13.2 10.8 -9.3 4.6 -20.5 7.1 -22 4.7z"/>
  <path d="M497 122.8 c-2.6 -2.9 -2.5 -5.9 0.3 -8.6 4.6 -4.3 10.7 -1.7 10.7 4.5 0 5.8 -6.9 8.5 -11 4.1z"/>
</g>

</svg>